<?xml version="1.0" standalone="no"?>
<!DOCTYPE svg PUBLIC "-//W3C//DTD SVG 20010904//EN"
 "http://www.w3.org/TR/2001/REC-SVG-20010904/DTD/svg10.dtd">
<svg version="1.0" xmlns="http://www.w3.org/2000/svg"
 width="160.000000pt" height="160.000000pt" viewBox="0 0 495.000000 495.000000"
 preserveAspectRatio="xMidYMid meet">

<g transform="translate(0.000000,495.000000) scale(0.100000,-0.100000)"
fill="#000000" stroke="none">
<path d="M1910 4639 c-373 -47 -761 -241 -995 -497 -116 -126 -205 -278 -240
-407 -26 -94 -31 -321 -10 -446 55 -330 230 -691 489 -1009 47 -58 117 -143
156 -190 38 -47 85 -117 105 -156 l35 -70 0 -185 c0 -101 5 -217 10 -257 34
-264 255 -505 536 -583 102 -29 277 -32 374 -6 213 56 426 237 485 412 14 40
16 70 10 153 -6 92 -4 107 15 146 35 74 107 96 167 50 78 -59 199 -390 454
-1239 18 -60 34 -112 35 -113 3 -5 327 182 409 237 39 25 71 54 73 63 4 22
-40 130 -90 220 -127 229 -155 284 -203 393 -113 259 -155 438 -155 663 0 340
63 643 157 754 60 70 74 101 74 162 0 70 -34 157 -130 329 -95 171 -140 267
-191 407 -85 236 -142 359 -230 502 -206 330 -480 555 -775 633 -157 41 -395
56 -565 34z m428 -104 c242 -47 474 -172 634 -343 81 -86 131 -159 203 -295
l55 -104 -177 -6 c-122 -4 -205 -12 -264 -26 -197 -45 -371 -139 -434 -235
-48 -72 -91 -203 -116 -356 l-22 -130 -101 98 c-152 148 -233 188 -322 158
-64 -21 -167 -100 -205 -156 -27 -40 -30 -52 -27 -100 9 -111 121 -312 252
-449 93 -97 130 -153 121 -181 -25 -78 -319 -368 -392 -386 -20 -5 -34 2 -75
42 -115 112 -488 604 -547 722 -127 252 -199 646 -162 882 15 94 70 211 150
317 80 106 245 263 345 328 183 120 434 207 686 239 70 9 317 -3 398 -19z
m1081 -1185 c186 -392 250 -542 258 -609 5 -40 2 -51 -21 -78 -31 -37 -76 -57
-113 -50 -16 2 -65 15 -109 27 -98 27 -134 23 -134 -17 0 -40 87 -121 140
-129 22 -4 40 -10 40 -14 0 -13 -34 -37 -115 -81 -101 -55 -142 -87 -154 -121
-14 -40 20 -76 113 -122 86 -43 146 -102 146 -144 -1 -67 -31 -77 -233 -75
-347 4 -467 52 -684 269 -77 78 -99 107 -137 186 -53 109 -116 328 -116 404 0
44 4 57 26 77 33 31 44 82 32 149 -15 81 -3 221 26 306 53 155 103 215 231
278 125 61 243 80 496 83 l146 1 162 -340z m-1530 -160 c25 -12 77 -53 117
-94 122 -125 205 -293 219 -451 19 -195 181 -483 346 -613 153 -120 282 -160
589 -182 161 -11 220 -28 250 -69 28 -40 78 -195 100 -310 27 -143 87 -291
277 -684 105 -216 105 -218 87 -239 -23 -26 -172 -97 -219 -105 -31 -5 -35 -3
-54 36 -35 68 -103 259 -230 646 -180 551 -210 601 -355 599 -107 -1 -177 -45
-223 -139 -28 -55 -32 -79 -42 -210 -7 -96 -13 -121 -37 -165 -32 -60 -159
-182 -248 -240 -73 -48 -114 -55 -265 -47 -219 12 -332 56 -452 176 -84 85
-149 198 -190 331 -32 103 -31 231 1 313 35 91 127 219 267 372 152 166 228
256 247 294 13 25 13 31 -3 58 -10 16 -69 83 -130 148 -128 135 -192 226 -232
329 -45 114 -36 215 23 243 58 29 98 29 157 3z m1613 -907 c32 -29 16 -73 -27
-73 -58 0 -59 88 -1 90 5 0 18 -7 28 -17z"/>
<path d="M3030 3470 c-41 -11 -127 -45 -190 -74 -113 -54 -189 -80 -262 -91
-40 -6 -57 -31 -34 -53 41 -41 183 -16 375 66 134 57 200 69 285 54 83 -16
115 -15 122 2 9 23 -24 74 -57 91 -50 26 -153 28 -239 5z"/>
<path d="M3082 3285 c-63 -14 -273 -83 -415 -137 -90 -35 -97 -53 -27 -74 103
-31 246 -46 415 -46 312 1 462 55 383 139 -50 54 -220 135 -277 132 -9 0 -44
-7 -79 -14z m133 -99 c25 -18 14 -40 -33 -70 -76 -48 -154 -56 -194 -19 -33
30 4 60 104 87 68 19 100 19 123 2z"/>
</g>
</svg>
